HIERARCHY
ROOT Hips
{
    OFFSET   0.000000   0.000000   0.000000
    CHANNELS 6 Xposition Yposition Zposition Zrotation Xrotation Yrotation
    JOINT Chest
    {
        OFFSET   0.000000   8.007240   0.000000
        CHANNELS 3 Zrotation Xrotation Yrotation
        JOINT Chest2
        {
            OFFSET   0.000000  22.077100   0.000000
            CHANNELS 3 Zrotation Xrotation Yrotation
            JOINT Neck
            {
                OFFSET   0.000000  23.254800   0.000000
                CHANNELS 3 Zrotation Xrotation Yrotation
                JOINT Head
                {
                    OFFSET   0.000000  14.370000   1.956600
                    CHANNELS 3 Zrotation Xrotation Yrotation
                    End Site
                    {
                        OFFSET   0.000000  19.566000   0.000000
                    }
                }
            }
            JOINT LeftCollar
            {
                OFFSET   3.911900  19.017000  -0.467064
                CHANNELS 3 Zrotation Xrotation Yrotation
                JOINT LeftShoulder
                {
                    OFFSET  10.383700   0.000000   0.000000
                    CHANNELS 3 Zrotation Xrotation Yrotation
                    JOINT LeftElbow
                    {
                        OFFSET  26.662100   0.001476   0.000517
                        CHANNELS 3 Zrotation Xrotation Yrotation
                        JOINT LeftWrist
                        {
                            OFFSET  28.869000  -0.000025  -0.000106
                            CHANNELS 3 Zrotation Xrotation Yrotation
                            JOINT LeftFinger0
                            {
                                OFFSET   2.044660  -2.323460   3.252850
                                CHANNELS 3 Zrotation Xrotation Yrotation
                                JOINT LeftFinger01
                                {
                                    OFFSET   3.088130   0.000000   0.000000
                                    CHANNELS 3 Zrotation Xrotation Yrotation
                                    JOINT LeftFinger02
                                    {
                                        OFFSET   2.639460   0.000000   0.000000
                                        CHANNELS 3 Zrotation Xrotation Yrotation
                                        End Site
                                        {
                                            OFFSET   2.582190   0.000000   0.000000
                                        }
                                    }
                                }
                            }
                            JOINT LeftFinger1
                            {
                                OFFSET   8.364480   0.000000   3.252850
                                CHANNELS 3 Zrotation Xrotation Yrotation
                                JOINT LeftFinger11
                                {
                                    OFFSET   4.646930   0.000000   0.000000
                                    CHANNELS 3 Zrotation Xrotation Yrotation
                                    JOINT LeftFinger12
                                    {
                                        OFFSET   2.323460   0.000000   0.000000
                                        CHANNELS 3 Zrotation Xrotation Yrotation
                                        End Site
                                        {
                                            OFFSET   2.273050   0.000000   0.000000
                                        }
                                    }
                                }
                            }
                            JOINT LeftFinger2
                            {
                                OFFSET   8.364490   0.000015   1.078090
                                CHANNELS 3 Zrotation Xrotation Yrotation
                                JOINT LeftFinger21
                                {
                                    OFFSET   5.111620   0.000000   0.000000
                                    CHANNELS 3 Zrotation Xrotation Yrotation
                                    JOINT LeftFinger22
                                    {
                                        OFFSET   2.788160   0.000016   0.000000
                                        CHANNELS 3 Zrotation Xrotation Yrotation
                                        End Site
                                        {
                                            OFFSET   2.727660   0.000000   0.000000
                                        }
                                    }
                                }
                            }
                            JOINT LeftFinger3
                            {
                                OFFSET   7.899780   0.000017  -1.078090
                                CHANNELS 3 Zrotation Xrotation Yrotation
                                JOINT LeftFinger31
                                {
                                    OFFSET   4.646930   0.000000   0.000000
                                    CHANNELS 3 Zrotation Xrotation Yrotation
                                    JOINT LeftFinger32
                                    {
                                        OFFSET   2.323470   0.000000   0.000000
                                        CHANNELS 3 Zrotation Xrotation Yrotation
                                        End Site
                                        {
                                            OFFSET   2.273050   0.000000   0.000000
                                        }
                                    }
                                }
                            }
                            JOINT LeftFinger4
                            {
                                OFFSET   7.435090   0.000000  -3.252850
                                CHANNELS 3 Zrotation Xrotation Yrotation
                                JOINT LeftFinger41
                                {
                                    OFFSET   3.717550   0.000000   0.000000
                                    CHANNELS 3 Zrotation Xrotation Yrotation
                                    JOINT LeftFinger42
                                    {
                                        OFFSET   1.858770   0.000000   0.000000
                                        CHANNELS 3 Zrotation Xrotation Yrotation
                                        End Site
                                        {
                                            OFFSET   1.818440   0.000000   0.000000
                                        }
                                    }
                                }
                            }
                        }
                    }
                }
            }
            JOINT RightCollar
            {
                OFFSET  -3.911900  19.017000  -0.467063
                CHANNELS 3 Zrotation Xrotation Yrotation
                JOINT RightShoulder
                {
                    OFFSET -10.383700   0.000019   0.000000
                    CHANNELS 3 Zrotation Xrotation Yrotation
                    JOINT RightElbow
                    {
                        OFFSET -26.662100   0.001175   0.000102
                        CHANNELS 3 Zrotation Xrotation Yrotation
                        JOINT RightWrist
                        {
                            OFFSET -28.869000   0.000016  -0.000079
                            CHANNELS 3 Zrotation Xrotation Yrotation
                            JOINT RightFinger0
                            {
                                OFFSET  -2.044660  -2.323490   3.252850
                                CHANNELS 3 Zrotation Xrotation Yrotation
                                JOINT RightFinger01
                                {
                                    OFFSET  -3.088140   0.000000   0.000000
                                    CHANNELS 3 Zrotation Xrotation Yrotation
                                    JOINT RightFinger02
                                    {
                                        OFFSET  -2.639460   0.000000   0.000000
                                        CHANNELS 3 Zrotation Xrotation Yrotation
                                        End Site
                                        {
                                            OFFSET  -2.582190   0.000000   0.000000
                                        }
                                    }
                                }
                            }
                            JOINT RightFinger1
                            {
                                OFFSET  -8.364480   0.000000   3.252850
                                CHANNELS 3 Zrotation Xrotation Yrotation
                                JOINT RightFinger11
                                {
                                    OFFSET  -4.646930   0.000000   0.000000
                                    CHANNELS 3 Zrotation Xrotation Yrotation
                                    JOINT RightFinger12
                                    {
                                        OFFSET  -2.323470   0.000000   0.000000
                                        CHANNELS 3 Zrotation Xrotation Yrotation
                                        End Site
                                        {
                                            OFFSET  -2.273050   0.000000   0.000000
                                        }
                                    }
                                }
                            }
                            JOINT RightFinger2
                            {
                                OFFSET  -8.364480   0.000000   1.078090
                                CHANNELS 3 Zrotation Xrotation Yrotation
                                JOINT RightFinger21
                                {
                                    OFFSET  -5.111620   0.000000   0.000000
                                    CHANNELS 3 Zrotation Xrotation Yrotation
                                    JOINT RightFinger22
                                    {
                                        OFFSET  -2.788160   0.000000   0.000000
                                        CHANNELS 3 Zrotation Xrotation Yrotation
                                        End Site
                                        {
                                            OFFSET  -2.727660   0.000000   0.000000
                                        }
                                    }
                                }
                            }
                            JOINT RightFinger3
                            {
                                OFFSET  -7.899780   0.000000  -1.078090
                                CHANNELS 3 Zrotation Xrotation Yrotation
                                JOINT RightFinger31
                                {
                                    OFFSET  -4.646930   0.000000   0.000000
                                    CHANNELS 3 Zrotation Xrotation Yrotation
                                    JOINT RightFinger32
                                    {
                                        OFFSET  -2.323470   0.000000   0.000000
                                        CHANNELS 3 Zrotation Xrotation Yrotation
                                        End Site
                                        {
                                            OFFSET  -2.273050   0.000000   0.000000
                                        }
                                    }
                                }
                            }
                            JOINT RightFinger4
                            {
                                OFFSET  -7.435090   0.000000  -3.252850
                                CHANNELS 3 Zrotation Xrotation Yrotation
                                JOINT RightFinger41
                                {
                                    OFFSET  -3.717550   0.000000   0.000000
                                    CHANNELS 3 Zrotation Xrotation Yrotation
                                    JOINT RightFinger42
                                    {
                                        OFFSET  -1.858770   0.000000   0.000000
                                        CHANNELS 3 Zrotation Xrotation Yrotation
                                        End Site
                                        {
                                            OFFSET  -1.818440   0.000000   0.000000
                                        }
                                    }
                                }
                            }
                        }
                    }
                }
            }
        }
    }
    JOINT LeftHip
    {
        OFFSET   9.783040   0.000000   0.000000
        CHANNELS 3 Zrotation Xrotation Yrotation
        JOINT LeftKnee
        {
            OFFSET   0.000032 -41.789100  -0.002222
            CHANNELS 3 Zrotation Xrotation Yrotation
            JOINT LeftAnkle
            {
                OFFSET   0.000087 -41.133200  -0.000135
                CHANNELS 3 Zrotation Xrotation Yrotation
                JOINT LeftToe
                {
                    OFFSET   0.000000  -6.358960  14.674500
                    CHANNELS 3 Zrotation Xrotation Yrotation
                    End Site
                    {
                        OFFSET   0.000000   0.000000   3.913200
                    }
                }
            }
        }
    }
    JOINT RightHip
    {
        OFFSET  -9.783040   0.000000   0.000000
        CHANNELS 3 Zrotation Xrotation Yrotation
        JOINT RightKnee
        {
            OFFSET   0.000047 -41.789100  -0.000896
            CHANNELS 3 Zrotation Xrotation Yrotation
            JOINT RightAnkle
            {
                OFFSET  -0.000117 -41.133300  -0.000248
                CHANNELS 3 Zrotation Xrotation Yrotation
                JOINT RightToe
                {
                    OFFSET   0.000000  -6.358970  14.674500
                    CHANNELS 3 Zrotation Xrotation Yrotation
                    End Site
                    {
                        OFFSET   0.000000   0.000000   3.913200
                    }
                }
            }
        }
    }
}
MOTION
Frames: 4
Frame Time:   0.016667
 -0.594918  89.690900   2.112550  -2.046020  -6.874800   0.314865   1.557170   3.712830  -0.109273   3.131500   7.421370  -0.321384   0.536510   1.177120  -0.005266   0.875703   2.386220   5.088160  -1.680690   3.573230  -2.615200 -69.998800 -33.741100 -28.573300  15.367300 -24.846600 -90.511400 -71.160600  44.747600  90.166600  33.521600  25.475400 -59.860400 -36.686600  -0.024881   0.005787 -13.720800   0.005111  -0.015683 -29.423800   2.227530  -4.269570 -23.984700   0.015400   0.003851 -16.789200   0.012172   0.004968 -28.541100  -2.240900   3.881670 -34.925400   0.094144   0.035205 -23.260300   0.046406   0.042961 -28.513900  -2.583620   4.646310 -39.287500   0.095339   0.029273 -26.165600   0.045032   0.041859 -36.878300  -6.946800   8.995510 -56.111000   0.068805   0.066790 -37.370000   0.008600   0.068668  -0.556429  -0.303770   2.235890  63.597500 -16.303000  23.337900 -39.096200 -34.874800  72.659300  46.842600  40.979800 -50.922600 -28.735500  23.467000  61.899700  40.540400   0.087817  -0.096019  16.136800   0.088771   0.013462  30.039200   5.747520  10.458600  24.987100  -0.002105  -0.005313  17.490900  -0.005394  -0.005582  27.829900   2.024290   3.874340  32.269200   0.021968  -0.013421  21.491200   0.008764  -0.016675  28.532300   0.234880   0.428302  39.467400   0.023052  -0.010728  26.285300   0.009983  -0.017241  40.047200  -2.459920  -2.959120  60.173300  -0.010165  -0.019531  40.075400  -0.015483  -0.006254   3.119830  11.339500   2.674490   0.551801   0.408324   9.618260  -3.002370  -3.563620   2.665530   0.000000   0.000000   0.000000   1.961800   6.633280  -4.789730   1.275870   4.127370  -7.294120  -3.881190  -3.617120  -3.112430  -0.000000   0.000000   0.000000
 -0.586028  89.669800   2.156290  -2.062480  -6.853490   0.255498   1.555700   3.671780  -0.127517   3.129270   7.338730  -0.356216   0.516688   1.227990  -0.005310   0.849677   2.489450   5.175060  -1.606530   3.533660  -2.559120 -69.213300 -33.952900 -28.288300  15.440400 -24.444600 -90.129600 -70.832300  40.147300  91.920700  36.691500  28.041200 -56.949200 -32.315300  -0.073149  -0.003878 -11.077900  -0.038323  -0.008988 -29.020000   1.396720  -2.383720 -23.771000   0.041324   0.024842 -16.639700   0.024412   0.023445 -28.960100  -2.865840   5.398620 -38.178500   0.108138   0.086489 -25.426900   0.046944   0.080257 -28.885700  -2.771760   5.097050 -43.409300   0.101639   0.107200 -28.910600   0.032617   0.093548 -38.536000  -7.090710   9.028700 -58.611900   0.071933   0.126204 -39.035500  -0.008483   0.096451  -0.632395  -0.299646   2.201820  63.345300 -16.814800  23.675100 -38.701500 -35.203200  72.971100  56.886100  30.155900 -55.768500 -30.175600  26.596500  63.640900  38.648000  -0.055641  -0.016255  14.609400  -0.022680  -0.004444  32.301500   5.418200   8.919780  26.772600  -0.021135  -0.040998  18.740800  -0.024121  -0.023155  27.897800   2.599280   4.849420  34.118200  -0.004598  -0.052924  22.722700  -0.017373  -0.031592  28.764600   1.418790   2.445900  39.063200  -0.007704  -0.036288  26.016100  -0.014536  -0.019678  40.505200  -2.259430  -2.899520  60.837900  -0.024770  -0.057209  40.518000  -0.036646  -0.020298   3.109250  11.343500   2.661100   0.561475   0.395518   9.664020  -2.993570  -3.564510   2.697400   0.000000   0.000000  -0.000000   1.961270   6.612360  -4.803350   1.271760   4.139740  -7.275300  -3.875160  -3.618660  -3.059600   0.000000   0.000000  -0.000000
 -0.577411  89.638400   2.192570  -2.076180  -6.841580   0.215866   1.549430   3.651900  -0.139426   3.117290   7.298670  -0.379139   0.509395   1.267400  -0.005347   0.839588   2.569350   5.210380  -1.607480   3.517820  -2.562890 -68.292200 -33.644500 -27.627800  15.867300 -24.565400 -89.498500 -69.010000  40.229500  91.781300  39.204800  29.678200 -54.594400 -29.756300  -0.034270  -0.000456  -9.791870  -0.017835  -0.003251 -26.507400   1.979780  -4.160440 -21.816900   0.052410   0.033345 -15.271800   0.030297   0.031200 -28.716400  -1.456600   2.694110 -36.154100   0.130307   0.116076 -24.078600   0.053606   0.102906 -29.102900  -1.317490   2.425080 -40.898900   0.123281   0.137769 -27.238600   0.039146   0.116830 -37.081500  -5.968870   7.836590 -56.160300   0.098887   0.148884 -37.402700   0.000639   0.118429  -0.635962  -0.304926   2.179950  63.244600 -17.465800  23.846500 -38.527100 -35.079300  73.080400  63.634800  23.634200 -58.464300 -33.383100  29.630700  65.631500  36.944200  -0.099402  -0.017574  13.519000  -0.050944  -0.001324  33.959700   5.560600   8.326940  28.115400   0.022601  -0.084355  19.680800  -0.000658  -0.060805  28.659700   3.707380   6.383660  35.137800   0.009998  -0.060936  23.401700  -0.010509  -0.040006  29.002700   3.148960   5.551050  38.307300   0.002273  -0.044379  25.512700  -0.010839  -0.026071  39.575700  -1.352770  -1.882830  59.381400  -0.013594  -0.092936  39.548000  -0.038739  -0.045832   3.104530  11.346400   2.641160   0.563809   0.397056   9.702980  -2.985590  -3.575480   2.723850  -0.000000   0.000000  -0.000000   1.958350   6.604920  -4.803760   1.272010   4.147830  -7.276880  -3.868030  -3.624500  -3.017110   0.000000   0.000000   0.000000
 -0.568191  89.600300   2.222280  -2.083350  -6.830890   0.199780   1.540420   3.639320  -0.150615   3.099850   7.273260  -0.400654   0.505049   1.291710  -0.005380   0.833332   2.618640   5.221280  -1.610860   3.513100  -2.566690 -67.344100 -32.876100 -26.819900  16.453900 -24.854700 -88.646400 -66.783300  40.793400  90.782600  40.785200  30.714100 -53.481300 -28.583300   0.005822   0.003390  -9.291640   0.002653  -0.000000 -23.340100   2.915270  -7.076380 -19.191600   0.055952   0.035949 -13.434100   0.032074   0.033708 -27.638500   0.628501  -1.376900 -32.243300   0.143517   0.129489 -21.474000   0.059461   0.113566 -29.140700   0.814358  -1.525090 -36.142100   0.137717   0.146638 -24.070600   0.045675   0.125119 -34.100200  -4.206050   6.046900 -51.407700   0.121150   0.155145 -34.237500   0.013237   0.129066  -0.636319  -0.310203   2.173290  63.319800 -18.057100  23.942300 -38.359700 -34.873800  73.217000  66.605800  21.078400 -59.275900 -35.415200  32.034000  66.389000  35.260500  -0.105719  -0.018892  12.585400  -0.054982   0.002044  34.824600   5.829730   8.161440  28.832600   0.066337  -0.111904  20.182800   0.022806  -0.087411  29.284400   4.469820   7.854490  35.583700   0.024594  -0.062080  23.698700  -0.000728  -0.043753  29.063100   4.283470   7.638720  36.460600   0.012250  -0.045741  24.282700  -0.004789  -0.030698  37.349600  -0.189414  -0.303432  56.025900   0.004181  -0.113983  37.313200  -0.039038  -0.063451   3.100440  11.347900   2.622970   0.562297   0.408117   9.723130  -2.977720  -3.595820   2.736770   0.000000   0.000000   0.000000   1.953060   6.599840  -4.803780   1.272160   4.152730  -7.282740  -3.860560  -3.631370  -2.996260  -0.000000   0.000000   0.000000
